<mxfile host="Electron" modified="2023-11-06T18:22:59.500Z" agent="Mozilla/5.0 (Windows NT 10.0; Win64; x64) AppleWebKit/537.36 (KHTML, like Gecko) draw.io/22.0.2 Chrome/114.0.5735.289 Electron/25.8.4 Safari/537.36" etag="Ymy-kO2wDaQ-SwknieIE" version="22.0.2" type="device">
  <diagram name="Page-1" id="zCG7-GmvN5LB4hq2jxHz">
    <mxGraphModel dx="932" dy="1396" grid="1" gridSize="10" guides="1" tooltips="1" connect="1" arrows="1" fold="1" page="1" pageScale="1" pageWidth="827" pageHeight="1169" math="0" shadow="0">
      <root>
        <mxCell id="0" />
        <mxCell id="1" parent="0" />
        <mxCell id="xjqxky6rUIyDjLg622Qc-6" value="" style="rounded=0;whiteSpace=wrap;html=1;fillColor=none;strokeWidth=3;strokeColor=#9673a6;" vertex="1" parent="1">
          <mxGeometry x="60" y="250" width="380" height="320" as="geometry" />
        </mxCell>
        <mxCell id="xjqxky6rUIyDjLg622Qc-1" value="&lt;font style=&quot;font-size: 19px;&quot;&gt;Version 1.1&lt;br&gt;&lt;b&gt;Staging&lt;/b&gt;&lt;/font&gt;" style="shape=cylinder3;whiteSpace=wrap;html=1;boundedLbl=1;backgroundOutline=1;size=15;fillColor=#dae8fc;strokeColor=#6c8ebf;" vertex="1" parent="1">
          <mxGeometry x="90" y="310" width="130" height="200" as="geometry" />
        </mxCell>
        <mxCell id="xjqxky6rUIyDjLg622Qc-2" value="&lt;b&gt;&lt;font style=&quot;font-size: 14px;&quot;&gt;Umgebung 1&lt;/font&gt;&lt;/b&gt;" style="text;html=1;align=center;verticalAlign=middle;resizable=0;points=[];autosize=1;strokeColor=none;fillColor=none;" vertex="1" parent="1">
          <mxGeometry x="100" y="310" width="110" height="30" as="geometry" />
        </mxCell>
        <mxCell id="xjqxky6rUIyDjLg622Qc-3" value="&lt;font style=&quot;font-size: 19px;&quot;&gt;Version 1.0&lt;br&gt;&lt;b&gt;Live&lt;/b&gt;&lt;/font&gt;" style="shape=cylinder3;whiteSpace=wrap;html=1;boundedLbl=1;backgroundOutline=1;size=15;fillColor=#d5e8d4;strokeColor=#82b366;" vertex="1" parent="1">
          <mxGeometry x="270" y="310" width="130" height="200" as="geometry" />
        </mxCell>
        <mxCell id="xjqxky6rUIyDjLg622Qc-4" value="&lt;b&gt;&lt;font style=&quot;font-size: 14px;&quot;&gt;Umgebung 2&lt;/font&gt;&lt;/b&gt;" style="text;html=1;align=center;verticalAlign=middle;resizable=0;points=[];autosize=1;strokeColor=none;fillColor=none;" vertex="1" parent="1">
          <mxGeometry x="280" y="310" width="110" height="30" as="geometry" />
        </mxCell>
        <mxCell id="xjqxky6rUIyDjLg622Qc-9" style="edgeStyle=orthogonalEdgeStyle;orthogonalLoop=1;jettySize=auto;html=1;curved=1;fillColor=#f8cecc;strokeColor=#b85450;strokeWidth=3;" edge="1" parent="1" source="xjqxky6rUIyDjLg622Qc-5" target="xjqxky6rUIyDjLg622Qc-4">
          <mxGeometry relative="1" as="geometry" />
        </mxCell>
        <mxCell id="xjqxky6rUIyDjLg622Qc-5" value="&lt;b&gt;&lt;font style=&quot;font-size: 18px;&quot;&gt;Loadbalancer&lt;/font&gt;&lt;/b&gt;" style="shape=cube;whiteSpace=wrap;html=1;boundedLbl=1;backgroundOutline=1;darkOpacity=0.05;darkOpacity2=0.1;size=10;fillColor=#f8cecc;strokeColor=#b85450;" vertex="1" parent="1">
          <mxGeometry x="170" y="150" width="160" height="50" as="geometry" />
        </mxCell>
        <mxCell id="xjqxky6rUIyDjLg622Qc-10" value="" style="rounded=0;whiteSpace=wrap;html=1;fillColor=none;strokeWidth=3;strokeColor=#9673a6;" vertex="1" parent="1">
          <mxGeometry x="490" y="250" width="380" height="320" as="geometry" />
        </mxCell>
        <mxCell id="xjqxky6rUIyDjLg622Qc-11" value="&lt;font style=&quot;font-size: 19px;&quot;&gt;Version 1.1&lt;br&gt;&lt;b&gt;Live&lt;/b&gt;&lt;br&gt;&lt;/font&gt;" style="shape=cylinder3;whiteSpace=wrap;html=1;boundedLbl=1;backgroundOutline=1;size=15;fillColor=#dae8fc;strokeColor=#6c8ebf;" vertex="1" parent="1">
          <mxGeometry x="520" y="310" width="130" height="200" as="geometry" />
        </mxCell>
        <mxCell id="xjqxky6rUIyDjLg622Qc-12" value="&lt;b&gt;&lt;font style=&quot;font-size: 14px;&quot;&gt;Umgebung 1&lt;/font&gt;&lt;/b&gt;" style="text;html=1;align=center;verticalAlign=middle;resizable=0;points=[];autosize=1;strokeColor=none;fillColor=none;" vertex="1" parent="1">
          <mxGeometry x="530" y="310" width="110" height="30" as="geometry" />
        </mxCell>
        <mxCell id="xjqxky6rUIyDjLg622Qc-13" value="&lt;font style=&quot;font-size: 19px;&quot;&gt;Version 1.0&lt;br&gt;&lt;b&gt;Staging&lt;/b&gt;&lt;/font&gt;" style="shape=cylinder3;whiteSpace=wrap;html=1;boundedLbl=1;backgroundOutline=1;size=15;fillColor=#d5e8d4;strokeColor=#82b366;" vertex="1" parent="1">
          <mxGeometry x="700" y="310" width="130" height="200" as="geometry" />
        </mxCell>
        <mxCell id="xjqxky6rUIyDjLg622Qc-14" value="&lt;b&gt;&lt;font style=&quot;font-size: 14px;&quot;&gt;Umgebung 2&lt;/font&gt;&lt;/b&gt;" style="text;html=1;align=center;verticalAlign=middle;resizable=0;points=[];autosize=1;strokeColor=none;fillColor=none;" vertex="1" parent="1">
          <mxGeometry x="710" y="310" width="110" height="30" as="geometry" />
        </mxCell>
        <mxCell id="xjqxky6rUIyDjLg622Qc-15" style="edgeStyle=orthogonalEdgeStyle;orthogonalLoop=1;jettySize=auto;html=1;curved=1;fillColor=#f8cecc;strokeColor=#b85450;strokeWidth=3;" edge="1" parent="1" source="xjqxky6rUIyDjLg622Qc-16" target="xjqxky6rUIyDjLg622Qc-12">
          <mxGeometry relative="1" as="geometry" />
        </mxCell>
        <mxCell id="xjqxky6rUIyDjLg622Qc-16" value="&lt;b&gt;&lt;font style=&quot;font-size: 18px;&quot;&gt;Loadbalancer&lt;/font&gt;&lt;/b&gt;" style="shape=cube;whiteSpace=wrap;html=1;boundedLbl=1;backgroundOutline=1;darkOpacity=0.05;darkOpacity2=0.1;size=10;fillColor=#f8cecc;strokeColor=#b85450;" vertex="1" parent="1">
          <mxGeometry x="600" y="150" width="160" height="50" as="geometry" />
        </mxCell>
        <mxCell id="xjqxky6rUIyDjLg622Qc-17" value="&lt;b&gt;&lt;font color=&quot;#9673a6&quot; style=&quot;font-size: 16px;&quot;&gt;Before Deployment&lt;/font&gt;&lt;/b&gt;" style="rounded=0;whiteSpace=wrap;html=1;fillColor=none;strokeColor=#9673a6;strokeWidth=3;" vertex="1" parent="1">
          <mxGeometry x="165" y="585" width="170" height="45" as="geometry" />
        </mxCell>
        <mxCell id="xjqxky6rUIyDjLg622Qc-18" value="&lt;b&gt;&lt;font color=&quot;#9673a6&quot; style=&quot;font-size: 16px;&quot;&gt;After Deployment&lt;/font&gt;&lt;/b&gt;" style="rounded=0;whiteSpace=wrap;html=1;fillColor=none;strokeColor=#9673a6;strokeWidth=3;" vertex="1" parent="1">
          <mxGeometry x="595" y="585" width="170" height="45" as="geometry" />
        </mxCell>
      </root>
    </mxGraphModel>
  </diagram>
</mxfile>
